<?xml version="1.0" encoding="UTF-8"?>
<svg id="Layer_1" data-name="Layer 1" xmlns="http://www.w3.org/2000/svg" viewBox="0 0 1080 1080">
  <defs>
    <style>
      .cls-1 {
        fill: #001840;
      }

      .cls-2 {
        fill: #a8a8a8;
      }
    </style>
  </defs>
  <path class="cls-1" d="M624.66,351.52l-.72,1.45-40.88,26.35c-1.69.25-.9-.23-1.12-1.13-1.44-6.02-2.34-12.13-4.6-17.94-2.01,1.06.95,4.2.7,6.12-9.58-31.61-30.53-58.27-58.09-75.23-.21-.38-.61-.65-1.14-1.06-9.08-6.95-29.61-13.96-40.89-16.38-46.53-9.99-100.75,7.33-130.86,44.52-1.42,1.75-3.57,4-4.18,6.12.15-.13.31-.27.46-.42-2.17,2.83-4.22,5.75-6.16,8.75.01-.23,0-.45-.03-.68-27.88,42.11-30.2,95.29-6.13,139.77,3.67,6.77,8.73,12.92,11.86,19.84-6.98,1.27-40.7,9.16-45.07,6.51-.68-.41-6.65-12.05-7.53-13.87-49.89-103.84,11.95-228.49,122.85-254.23,70.23-16.29,143.17,11.25,185.01,69.34,2.49,3.47,19.08,29.1,17.37,31.07l-18.09,8.25-.98,1.71,26.99,7.58,1.23,3.56Z"/>
  <path class="cls-2" d="M735.83,580.97l-119.19-158.03.21-1.37,19.71-19.36,15.23,18.35,40.88-43.91c8.89-7.51,22.25-13.99,33.97-14.91,40.05-3.14,84.18,2.61,124.55.06,5.43-.34,11.18-1.55,16.38-3.08-10.71,22.63-30.09,45.54-56.86,47.38-26.33,1.81-55.69-2.35-81.74-.02-8.3.74-14.81,4.97-20.25,11.07l102.73.52.8,1.41c-9.42,17.74-27.86,36.38-48.95,38.15-24.32,2.04-52.2-2.41-76.27.11-8.37.87-14.74,4.56-19.57,11.36h94.7c-1.33,5.62-6.2,11.99-9.95,16.4-11.16,13.13-26.94,24.67-45.04,22.94l53.47,72.93h-24.82Z"/>
  <path class="cls-1" d="M720.17,580.97h-43.92l-62.64-81.72-21.37,25.97c-9.36,9.79-18.75,19.44-29.49,27.79-53.46,41.52-128.14,48.92-188.56,18.02l42.21-14.68c6.86-1.85,17.19-8.84,23.62-9.99,4.43-.79,13.28.6,18.59.27,54.65-3.35,80.24-50.81,116.42-84.45l32.4-30.88,112.73,149.66Z"/>
  <path class="cls-1" d="M266.5,450.37c.32,1.4-.47,2.11-1.03,3.16-2.71,5.05-6.89,10.18-9.79,15.42-43.32,78.45,33.71,78.73,88.59,66.44,37.33-8.36,73.83-23.38,108.1-40.07,77.66-37.81,147.46-89.63,215.09-142.71l-10.29,12.99c-73.82,84.34-171.32,161.6-280.1,194.18-35.69,10.69-100.29,23.42-131.89-1.41-36.14-28.4-1.25-82.27,21.31-108.01Z"/>
  <polygon class="cls-1" points="514.72 629.08 514.72 742.88 488.76 742.88 488.76 671.09 431.09 736.06 372.67 671.09 372.67 742.88 346.7 742.88 346.7 630.23 347.84 629.08 369.99 629.08 431.09 697.8 492.19 629.08 514.72 629.08"/>
  <path class="cls-1" d="M844.45,242.08c2.97,2.93,1.02,6.28-.69,9.2-5.48,9.36-21.29,18.83-30.66,24.33-15.8,9.26-32.61,16.92-48.53,25.96l2.97,8.28c6.91-3.13,17.6-9.35,20.28,2.24,2.57,11.11-6.62,9.97-11.14,14.21-.64.6-.09,1.63-.73,2.24-3.09,2.98-10.55,1.13-14.81,1.42-2.65.18-5.47,2.63-8.82.45l.7-3.75c-2.88.15-7.03-2.3-9.58-2.21s-4.39,3.54-7.22,2.96l2.27-3.43-6.09-2.66c6-2.4,12.02-6.14,17.49-9.63.19-.12,4.87-2.6,2-2.59-9.47,4.76-19.12,12.29-28.9,16.16-5.01,1.99-10.01,2.19-14.49,3.84-7.53,2.77-15.48,8.89-23.81,12.08-3.76,1.44-8.56,2.1-11.87,3.41-2.29.9,2.14,1.33.77,3.42-.15.22-4.57,1.35-5.18,1.4-3.85.31-8.79-1.61-13.57-1.41-2.93.12-14.81,3.74-14.86-.32l1.54-3.46-31.32-5.36c-.35-1.99.28-1.18,1.09-1.59,1.74-.89,4.97-2,6.93-2.22l33.98.76-1.52-1.13,11.45-10.31c-1.65.12-3.18,1.75-4.5,2.74-1.77,1.33-9.96,9.46-11.53,7.94l-6.16-28.68c-.34-2.56,5.53-5.42,7.32-4.23,6.64,4.45,13.01,20.52,22.96,16.16,2.23-.97,13.97-9.28,16.29-11.2.46-.38,1.89-1.44,1.59-1.84-4.24-.84-11.85-5.85-15.71-6.11-2.55-.18-4.51,2.66-7.19,2.28l2.29-4.57-21.14-8.27-6.35,2.14,2.29-3.8-6.88-2.31.78-2.27-32.85-12.23c3.91-3.95,9.33-4.93,14.68-4.36,22.13,2.37,51.01,13,73.9,17.74,3.51.73,11.82,2.99,14.83,2.65,3.32-.38,8.03-5.14,11.7-5.92,3.27-.69,6.19,1.04,8.56.21,24.87-13.03,67.08-50.85,95.83-46.9,5.27.72,7.76,5.2,10.15,5.89,2.97.86,8.54-.24,11.48,2.65ZM822.51,238.81c-1.12-.32-2.63-2.65-4.64-1.2l-.7,4.26,5.31-1.58c.2-.48-.04-1.02.03-1.48,1.66.47,8.07,2.34,7.63-.75l-7.64-.77c-.07.5.08,1.05,0,1.53ZM816.4,238.81c-1.14-1.17-7.02,1.49-5.34,4.57,2.29.79,7.34-2.53,5.34-4.57ZM843.89,244.16l-10.68,1.91-9.93,4.19c6.05-1.91,12.38-3.09,18.48-4.81.79-.22,2.31-.19,2.13-1.29ZM782.79,254.85l-12.64,6.83-1.1,3.85,12.65-6.82,1.09-3.86ZM749.2,276.99c2.72-.98,18.6-9.77,18.79-11.04.1-.63-.69-1.81-.48-2.71l-18.19,10.82-.13,2.93ZM748.42,275.47c-.55-.64-10.81,5.88-12.06,6.65-1.14.71-1.56,2.16-1.82,2.32-.19.11-1.22-.53-2.55.09-1.08.5-3.85,2.73-2.65,3.92s15.83-9.17,18.59-9.86l.49-3.12ZM723.98,298.39c-4.53.01-8.37-5.3-8.4-9.54-.02-2.28,1.76-4.39,1.15-6.5-6.07,5.05-3.4,17.11,5.04,17.14.64,0,2.47-.05,2.21-1.09ZM673.58,292.28l-23.67-8.41c-.42,2.18.58,1.23,1.66,1.73,6.81,3.12,14.2,4.85,20.95,8.12l1.06-1.44ZM747.66,286.93l-17.56,3.8c5.48.48,10.4-.48,15.46-2.48.81-.32,2.28-.22,2.1-1.32ZM722.46,300.68l-18.33,8.39c6.46-.37,13.33-4.31,18.33-8.39ZM777.45,307.55c-1.64-.29-2.18,1.03-2.68,2.27-1.9,4.71.11,13.05,6.5,12.22-4.34-3.58-7.4-9.22-3.82-14.5ZM693.44,310.61c-1.5-.4-1.84-.51-3.31.04-1.96.73-20.77,13.09-22.17,14.58-.94,1-1.65,1.1-1.25,2.94l26.72-17.56Z"/>
  <path class="cls-1" d="M207.54,629.31c21.32-1.57,59.83-2.29,79.09,5.99,43.97,18.89,41.72,87.55-3.69,103.78-18.38,6.57-71.49,6.6-90.68,2.05-22.71-5.39-39.5-22.38-41.76-46.07-3.76-39.45,18.35-62.9,57.03-65.74ZM207.53,652.21c-40.46,4.56-40.21,64.82,1.33,68.51,13.06,1.16,38.09,1.16,51.15,0,22.22-1.98,32.11-18.99,30.17-40.07-1.53-16.54-14.94-27.22-30.93-28.64-12.78-1.14-39.08-1.22-51.71.2Z"/>
  <polygon class="cls-1" points="661.36 706.99 661.36 630.23 662.51 629.08 686.95 629.08 688.09 630.23 688.09 742.88 661.74 742.88 578.88 666.88 576.59 665.74 576.59 742.88 550.62 742.88 550.62 629.08 575.44 629.08 661.36 706.99"/>
  <path class="cls-1" d="M638.45,354.91c-18.1,16.37-37.85,31.5-57.8,45.68-69.6,49.46-173.47,107.85-258.23,121.35-29.79,4.75-83.49,7.42-70.42-38.72l2.44,9.38c8.37,21.58,53.93,15.06,71.79,11.77,82.01-15.11,177.71-66.2,248.76-109.44l63.45-40.03Z"/>
  <polygon class="cls-1" points="776.69 742.88 830.09 686.64 777.45 629.08 812.2 629.08 865.1 685.97 812.97 742.88 776.69 742.88"/>
  <polygon class="cls-1" points="750.72 742.88 724.75 742.88 724.75 629.08 749.57 629.08 750.72 630.23 750.72 742.88"/>
  <path class="cls-1" d="M919.51,629.08l-47.08,49.59c-1.91.33-15.33-15.77-17.83-17.89l29.39-31.7h35.51Z"/>
  <path class="cls-2" d="M919.51,742.88h-35.51c-6.11-6.31-12.48-12.55-18.34-19.08-1.75-1.95-9.83-10.58-10.19-12.04-.22-.89-.05-1.51.6-2.13l16.37-16.33,47.08,49.59Z"/>
  <path class="cls-1" d="M785.85,800.93v-26.73h8.4v39.71c-9.8,2.13-11.98-4.63-17.55-10.33-5.71-5.85-11.54-11.67-17.59-17.16v27.49c-2.73-.34-6.39,1.03-8.4-1.15v-38.57c9.88-1.4,9.17,1.1,14.49,6.51,6.75,6.86,13.56,13.71,20.64,20.22Z"/>
  <path class="cls-1" d="M713.02,808.29c-11.47,11.45-41.29,8.4-43.82-11-2.75-21.03,18.71-27.79,35.54-22.56,13.93,4.32,18.16,23.7,8.28,33.56ZM688.66,780.49c-12.4,1.95-14.63,20.03-4.31,25.32,7.91,4.06,23.01,2.81,24.95-7.74,2.67-14.52-7.73-19.61-20.64-17.59Z"/>
  <path class="cls-1" d="M323.63,774.36l20.01,39.55-9.17-.36-3.93-7.9h-23.05s-4.44,8.15-4.44,8.15l-9.04.12,19.46-38.96,10.17-.59ZM326.84,798.64l-7.65-16.04c-.9-.61-8.1,14.34-8.39,16.04h16.04Z"/>
  <path class="cls-1" d="M533.05,813.91l-9.04-.12c-.49-.31-2.48-6.57-3.55-7.52-2.24-2.01-19.41-.03-23.56-.78l-4.32,8.06-9.18-.02,19.99-39.2c2.82.15,8.68-1.24,10.49,1.1l19.17,38.49ZM516.25,798.64c-.25-1.64-7.53-16.69-8.39-16.04l-7.65,16.04h16.04Z"/>
  <polygon class="cls-1" points="387.95 804.74 403.59 774.95 413.14 774.2 393.17 813.79 384.47 813.97 364.27 774.2 373.82 774.95 387.95 804.74"/>
  <path class="cls-1" d="M263.45,789.47h-98.14c-1.61,0-7.83-1.81-9.76-2.46-1.36-.46-4.35-1.66-5.13-2.89h108.07c.77,0,5.47,3.85,4.96,5.35Z"/>
  <path class="cls-1" d="M933.26,784.12c-.36,1.26-3.01,1.85-4.19,2.31-2.23.86-8.71,3.04-10.71,3.04h-97.38v-1.13c.32-.89,5.04-4.21,5.73-4.21h106.54Z"/>
  <polygon class="cls-1" points="595.68 774.2 595.68 781.07 579.64 781.07 579.64 813.91 571.24 813.91 571.24 781.07 555.2 781.07 555.2 774.2 595.68 774.2"/>
  <path class="cls-1" d="M263.45,800.93h-78.28c-.5,0-8.42-3.14-9.33-3.64s-1.29.05-.98-1.71h82.1c1.88,0,6.2,3.08,6.49,5.35Z"/>
  <path class="cls-1" d="M909.58,795.58c.4,2.19-.58,1.23-1.67,1.73-1.51.7-8.39,3.61-9.4,3.61h-77.52v-1.13c.56-1.59,5.73-4.21,7.26-4.21h81.34Z"/>
  <rect class="cls-1" x="627.76" y="774.2" width="8.4" height="39.71"/>
  <rect class="cls-1" x="444.46" y="774.2" width="8.4" height="39.71"/>
  <path class="cls-2" d="M480.35,842.93c1.28.19,3.39-.43,4.43.16,1.23.7,6.85,14.03,8.18,14.35,2.87.68,7.4-17.23,13.36-14.51v23.68h-3.82v-15.27c-3.13,1.91-6.04,12.63-9.53,12.27-2.71-.28-6.01-11.36-8.8-13.04v16.04h-3.82v-23.68Z"/>
  <path class="cls-2" d="M651.43,866.61v-23.68h12.6c1.29,0,6.13,2.32,7.29,3.4,4.96,4.64,4.03,14.49-1.6,18.33-.56.38-3.87,1.94-4.17,1.94h-14.13ZM655.25,862.79c19.97,3.81,19.79-19.64,0-16.04v16.04Z"/>
  <polygon class="cls-2" points="624.7 842.93 624.7 846.75 611.72 846.75 611.72 852.86 623.17 852.86 623.17 856.68 611.72 856.68 611.72 862.79 624.32 862.79 625.47 866.61 607.14 866.61 607.14 842.93 624.7 842.93"/>
  <path class="cls-2" d="M384.89,853.62l-1.28,2.16c-29.42.22-58.91.22-88.33,0l-1.28-2.16h90.89Z"/>
  <path class="cls-2" d="M787.38,853.62l-1.28,2.16c-29.17.22-58.41.22-87.57,0l-1.28-2.16h90.12Z"/>
  <polygon class="cls-2" points="582.7 842.93 582.7 846.76 575.06 846.75 575.06 866.61 570.48 866.61 570.48 846.75 562.84 846.76 562.84 842.93 582.7 842.93"/>
  <polygon class="cls-2" points="411.62 862.79 423.84 862.79 423.84 866.61 407.03 866.61 407.03 842.93 411.62 844.08 411.62 862.79"/>
  <rect class="cls-2" x="449.04" y="842.93" width="3.82" height="23.68"/>
  <rect class="cls-2" x="533.82" y="842.93" width="3.82" height="23.68"/>
  <g>
    <path class="cls-2" d="M361.04,369.53c2.27-.21,7.4,5.36,9.32,7.13-4.97,3.91-5.47-3.18-9.19-4.59-1.27-.48-3.71,1.28-3.41-1.15.44-.58,2.51-1.33,3.28-1.4Z"/>
    <path class="cls-2" d="M368.85,380.11h3.06s.36-3.05.36-3.05c2.84.87,4.67,1.76,6.49,4.19.12,1.63-6.99.67-7.95.34-.84-.29-1.84-.34-1.96-1.48Z"/>
    <g>
      <path class="cls-2" d="M519.95,291.14c.2.35.24.79.11,1.5l-3.06.4.79,1.51-2.19.14-.13,2.15c-.21.24-4.73-.15-3.8-2.28l3.04.38c-.83-1.16-2.42-1.06-3.43-1.9-1.7-1.42-2.16-3.83-4.2-3.82l.63,2.2-1.39.46c3.25,2.45,7.12,4.78,6.75,9.38-2.29,1.69-4.38,2.33-5.99-.59l2.62.7,1.2-2.99c-3.99.14-9.71-3-13.38-2.95-1.66.03-3.4,1.46-4.95,1.42-.6,2.27-.44,5.4-1.33,7.45-.92,2.13-4.26,2.48-3.81,4.99,1.46,8.13,8.13.15,9.72,7.41-2.2.72-1.73-2.99-3.42-2.28-3.04,1.29,1.28,4.83.37,6.1-5.17-.16-4.93,6.5-9.93,6.88-1.36-1.17,3.55-2.57,2.99-4.89-.17-.71-4.41-3.1-5.35-4.66-.7-1.14-.69-4.13-2.3-5.66l-2.2.71-8.42-17.57,15.67-3.55c2.04.01,5.03,4.98,8.01,5.07l-5.34-4.97,3.04-2.66-5.33,1.52,2.28-3.81-6.87.77,3.06,3.8-14.84,2.93c-.52-.12-3.23-4.44-3.36-5.02-.23-1.06.71-2.37.63-2.48-.16-.24-3.55-1.09-4.66-3.01l.84,2.23c-3.62-1.79-7.54-2.32-11.45-.76v-5.34s-1.55,5.33-1.55,5.33l-9.58-1.5.43-2.3c-3.18,3.3-4.76,1.43-7.99,1.49-2.52.05-8.73-.57-7.28,3.08h-3.06l1.53-2.28c-4.69-.49-1.52,2.68-3.44,4.56l-2.33-2.32-3.39,1.96,2.28,1.9-3.06-.52-.43-2.62-5.67-.68c1.05-2.09,4.49-1.99,6.49-2.29-.27,2.47,1.69,3.24,2.67.78l-1.56-.44.81-1.86c-.79-.78-11.89,1.29-12.23,2.68-.54,2.22,5.72,2.26,7.31,2.65,1.29.31,2.23-.76,1.85,1.54-2.18-.24-6.11-1.8-7.29.79-.4.87.48,2.14.4,2.22-.16.16-3.94,1.5-4.24,1.55-1.44.23-5.62.07-6.43-1.49,4.67.97,6.21-1.43,9.56-3.83l-3.45-.77.76-2.28-7.62,1.59c.23,1.25,1.06,2.17-.45,2.96-2.81.73-4.33-2.18-6.04-2.23-2.37-.08-15.98,9.07-18.66,11.11-9.74,7.38-16.46,17.01-25.57,25.09-2.17,2.83-4.22,5.75-6.16,8.75-.09,2.41-2.36,4.73-3.11,6.93-1.85,5.42-3.56,11.9-4.16,17.15-.25,2.18-1.18,4.26-.78,6.54,2.57.65,1.3-3.04,1.62-4.87.51-2.98,1.22-6.5,2.1-9.38.39-1.24-.62-2.16,1.62-1.78-3.12,6.11-1.68,12.49-2.26,18.73-.22,2.27-1.83,3.54-1.43,5.89.3,1.79,4.3,8.65,6,9.35,1.53.64,3.57.07,4.6.74.29.19,2.99,5.86,3.03,6.2.38,2.92-2.06,13.39-2.29,17.52-.98,17.65,2.05,35.43,6.87,52.31,1.36.19.75-1.72.58-2.49-1.25-5.77-3.13-11.34-4.16-17.23-2.97-16.85-3.19-32.43-.24-49.33,3.95-1.79,4.11,4.56,5.29,6.86,1.42,2.78,4.33,6.57,7.69,6.44.03-1.51-.61-2.72,1.52-2.3.74,3.5,2.08,5.69,1.48,9.51-.73,4.73-5.61,6.12-5.85,12.44-.04.94,1.04,1.63,1.03,2.1,0,.56-1.12,1.4-1.24,2.36-.42,3.37,1.95,4.29,3.21,6.67,1.76,3.31,5.67,13.29,7.45,15.25,1.1,1.22,4.79,2.8,6.51,4.4,4.95,4.59,3.23,7.11,4.67,12.54,1.25,4.71,2.7,9.46,4.21,14.1l39.88-13.82c5.05-4.22,3.26-11.95,4.53-16.86.7-2.75,5.84-6.56,6.52-9.51.35-1.52.36-5.47-.51-6.64-.38-.5-4.97-.97-6.2-3.9l1.52-1.13c-3.36-.62-8.06-.33-11.16-1.41-1.14-.4-1.2-1.56-2.48-2.11-1.28-.55-7.42-2.36-7.71-2.64-.08-.08.66-1.25.38-2.24-.42-1.51-2.1-5.83-3.03-6.94-2.92-3.45-6.84-2.15-9.27-3.71-.64-.4-4.73-5.76-4.89-6.56-.57-2.85,1.1-13.11,1.62-16.68,2.64-18.26,8.1-36.17,14.85-53.25l38.5,3.88-3.05,92.41h-12.99v.77h12.99v14.12l1.52,13.37v-27.49h14.51v-.77h-14.51l3.05-92.41,39.32-1.56c4.29,7.67-9.11.23-10.24,4.33l.75,11.7,4.47.11c2.01,3.71-3.54,5.35-4.56,7.86-.77,1.88-.47,3.62-1.1,5.05-.56,1.27-4.29,3.27-5.72,4.97-1.16,1.38-5.41,8.75-5.79,10.31-.64,2.62,1.27,5.44,1.15,7.97-.11,2.38-2.11,4.18-2.06,6.7.11,5.33,3.46,6.32,6.29,9.8.88,1.09.87,2.71,1.61,3.73,1.29,1.75,8.17,6.44,10.44,6.04,3.69-.66,6.52-.9,10.08-1.44,2.33-.36,4-2.53,6.54-2.25v17.57h.76v-17.19l1.9-1.14c1.47.82,2.2,3.57,3.45,4.23,1.66.89,4.97-1.41,5.84,1.29.69,2.16-1.15,6.33-1.27,8.61-.06,1.17-.13,1.34,1.15,1.15,2.12-.31,11.9-6.03,14.65-7.51,11.62-6.28,22.86-13.33,34.27-19.96,1.57-1.13,1.06-2.32.35-3.85,1.09.07,1.83.76,3.01.39.49-.16,6.69-5.81,7.27-6.53,3.14-3.89,5.19-10.49,4.06-15.46-.58-2.56-4.26-3.44-5.93-5.9l-1.91,3.82c-1.56-3.73-6.17-5.65-6.5-9.92,1.05-1.14,5.15,4.56,6.13,4.97.94.39,1.89-.33,2.54-.17,1.22.29,1.48,1.9,3.91,2.14,2.03.2,3.78-.34,5.38-1.52l2.28,2.97c.19-.22.28-.47.31-.74-9.58-31.61-30.53-58.27-58.09-75.23ZM462.76,293.23c1.09-2.07-.99-4.54,1.54-4.02l2.3,5.34-5.34.77c-.61-2.03,1.04-1.21,1.5-2.09ZM434.52,286.17c-.11,1.53-2.62.63-3.62,1.72-.52.57-2.15,4.45-3.26,5.52,2.07-.17,4.1-4.54,6.39-4.08.58.12,2.57,2.06,2.58,2.53l-1.79,3.52c-5.52-1.62-11.26.98-14.04-5.03,4.44-1.63,8.87-4.3,13.74-4.18ZM412.37,290.75l-2.29.76.74,2.2-3.79,1.61c.23-4.22,1.13-6.28,5.34-4.57ZM388.14,305.44c.78-.81,10.58-5.03,12-5.23,2.16-.3,3.24,1.53,5.36,1.22l-.76-3.81c3.98,2,5.8-1.78,8.91-3.71l1.83.26,1.48,4.2-9.16,2.31c.37,1.94,2.77,1.07,3.64,1.68.64.45,1.08,3.82,2.83,4.27l4.21-2.14c-.72,4.62-2.83,3.56-5.12,4.39-1.16.42-1.73,2.05-3.27,1.71,2.05-3.64-.45-8.17-4.57-6.51-.35.15-5.47,4.74-5.69,5.04-.85,1.17-.67,3.02-1.98,4.14-1.1.95-2.98.93-4.21,1.89-1.47,1.15-2.01,3.96-4.17,4.61-1.46-2.5,2.25-5.4,2.25-5.72-.03-1.72-7.34-4.72-3.58-8.6ZM403.22,333.9c-.91,4.7-4.74,12.11-6.32,17.35-4.73,15.65-7.59,31.69-9.33,47.96l-1.84.64-.56-1.47c-3.18.97-5.19.26-8.13-.89-2.14-.84-2.2-3.16-5.9-1.36l1.52-2.28c-3.18-.97-3.27.83-4.43,1.44-.56.3-1.71.03-2.41.47-1.22.77-1.3,3.32-2.72,4.2-1.27.3-2.02-1.92-3.18-2.19-1.98-.44-5.19,2.45-5.94-3.04-.68-4.96,5.23-12.61-4.99-11.58l5.33-10.31c-1.33-1.79-3.65-1.06-5.63-1.19-1.12,3.85-1.98,4.88-6.14,5.31-2.52-2.57-1.93-6.78-.98-10.01.27-.94,3.49-8.43,3.8-8.8.2-.25,5.38-3.11,5.7-3.16,2.44-.37,3.03,2.57,4.4,2.2.9-.25.39-3.31,4.42-2.26.21.05,3.49,2.51,3.57,2.72.55,1.57-2.15,5.76-.72,8.25,5.12,1.69,2.98-9.18,5.56-12.32,1.37-1.68,7.59-3.73,9.36-5.52,1.96-1.97,3.77-7.13,6.92-9.09,1.63-1.02,4.65-1.18,5.66-2.04.8-.7.48-2.13,1.25-2.72,1.06-.83,6.23-2.27,7.9-2.22l-2.28,3.04c.85.79,6.65-3.96,6.11-1.13ZM404.71,330.45l-3.03-.78,1.53-4.55-5.34,1.51c2.14-3,5.88-3.7,9.15-2.28l-3.04.77,2.29,1.53-1.56,3.8ZM444.12,333.56c-1.11,1.59-17.6.24-20.66-.06-2.41-.23-16.45-2.09-17.17-3.08.02-5.58,3.87-6.42,8.38-7.6l-5.35,6.1,7.63,2.3c.42-3.34,1.16-4.24-2.29-5.74-.01-1.76,3.85-3.14,2.71-6.89-1.43-4.7-5.07-.87-1.31-7.74,2.77-5.06,6.4-8.48,8.98-13.17,2.21-4.02,7.35-.86,11.01-.82-3.65,1.72-6.56,9.11-3.01,11.78,6.59,4.96,7.4-6.61,13.7-5.68l-2.62,30.6ZM445.21,334.27l2.68-31.31c3.01-3.67,7.52-3.22,11.52-4.52,2.09-.68,5.03-4.23,8.56-2.19,1.44.83,9.36,18.37,9.34,20.81l-4.43,2.1-.16,5.18c.29.32,4-.63,4.58-1.13,1.78-1.52-.67-4.72,2.28-4.21l-.75,7.63,3.81-.76c-.29.83.75,1.81.75,1.91-.15,2.18-3.59-.87-3.04,1.52l3.82,3.44c-12.91,1.89-25.92,1.6-38.96,1.53ZM546.03,328.16c-1.33,4.07,4.85,6.14,5.9,7.85.44.72.14,2.05.63,2.78,1.14,1.72,3.55,2.96,3.4,5.41-6.53.84-4.59-4.12-6.34-6.65-1.44-2.08-11.39-6.96-3.59-9.39ZM501.62,311.12c-.49-1.4-2.93-1.34-3.01-3.21-.13-1.83,2.29-2.9.83-4.94,3.29-.11,1.47,2.37,1.86,3.83.61,2.27,3.32,4.31,5.78,3.8l-1.53,2.28,3.06,1.53-3.05-.75.76,4.57-8.41.76,3.88-2.79c-.72-1.35.14-4.18-.17-5.08ZM538.66,357.84c-2.21-.29-4.69.85-6.68.8-5.12-.14-12.28-6.2-12.31,2.38-3.07-.03-5.17-3.02-7.04-3.66-1.8-.62-5.54.09-6.65-2.43-.42-.95.83-5.17-1.67-6.04-1.75-.6-12.89.88-14.98,1.62-2.29.83-4.64,4.33-8.21.94,2.78-.88,7.54-1.04,8.15-4.69.16-.99-.75-1.97-.18-3.29.63-1.47,3.13-2.07,3.39-2.48.3-.48-.99-1.94.05-2.54l7.31-1.9,11.81,8.81c.74,1.79-3.8,1.92-4.57,1.9l3.82,2.29c-.91-2.37,1.99-2.59,2.24-3.53.36-1.35-1.86-2.8.76-2.62l.05-1.1c-3.35-2.91-9.01-3.77-9.92-8.79l10.44,6.36c1.03,1.18,2.57,3.68,4.07,5.47,1.09,1.3,1.14,5,3.82,2.96,2.21-3.74-5.44-6.61,1.89-7.17l4.17,8.03,10.73-1.14.44,9.22-.93.6ZM532.65,337.26c-2.79.02-3.49,3.77-6.77,1.66-1.25-2.72-1.99-6.31.68-8.45.69,0,3.88,5.84,5.72,1.53l-2.27-1.16,2.27-1.91c-.29,6.66,7.67,4.57,7.64,9.92-2.67.84-5.03-1.61-7.27-1.59ZM548.47,377.28c-2.47-4.47-6.4-8.92-7.01-13.98l7.17,9.23c1.48,6.46,8.44,10.43,8.09,17.5-4.95-2.7-5.96-8.61-8.25-12.75Z"/>
      <path class="cls-2" d="M460.7,305.82c-.97-.94-1.37-2.83.15-3.51,2.79,1.69,5.88-1.17,8.03,1.8-1.73,1.75-6.23,3.62-8.18,1.71Z"/>
    </g>
  </g>
</svg>